# xmcd
#
# Track frame offsets:
# 150
# 19015
# 33654
# 49598
# 64666
# 79602
# 95316
# 107350
# 122500
# 140403
# 156074
# 174269
# 211580
#
# Disc length: 4440 seconds
#
#
# Revision: 6
# Processed by: cddbd v1.5.2PL0 Copyright (c) Steve Scherf et al.
# Submitted via: FreeRIP 2.941 
#
DISCID=9411560d
DTITLE=Latino - As aventuras do DJ L
DYEAR=2005
DGENRE=Dance
TTITLE0=Festa no Apê (Dragostea Din Tei)
TTITLE1=Umazinha
TTITLE2=Amor de Pizza
TTITLE3=o Trooc
TTITLE4=Renata
TTITLE5=Amante Profissional
TTITLE6=Tiro Onda
TTITLE7=Amiga Tati
TTITLE8=Obra de Arte
TTITLE9=Mulher Bebê
TTITLE10=Knife (Eletro K.Y. Radio Version)
TTITLE11=Festa no Apê (Dragostea Din Tei) ("Lalá Remix Vers)
TTITLE12=Faixa De Dados
EXTD=
EXTT0=
EXTT1=
EXTT2=
EXTT3=
EXTT4=
EXTT5=
EXTT6=
EXTT7=
EXTT8=
EXTT9=
EXTT10=
EXTT11=
EXTT12=
PLAYORDER=
